<svg width="18" height="14" viewBox="0 0 18 14" fill="none" xmlns="http://www.w3.org/2000/svg">
<path fill-rule="evenodd" clip-rule="evenodd" d="M10.2929 13.7077C9.90237 13.3172 9.90237 12.684 10.2929 12.2935L14.5858 8.00061H1C0.447715 8.00061 0 7.5529 0 7.00061C0 6.44833 0.447715 6.00061 1 6.00061H14.5858L10.2929 1.70772C9.90237 1.31719 9.90237 0.684028 10.2929 0.293504C10.6834 -0.0970207 11.3166 -0.0970207 11.7071 0.293504L17.7071 6.2935C17.8902 6.47656 17.9874 6.71293 17.9989 6.95264C17.9996 6.96862 18 6.98462 18 7.00061M17.9241 7.38339C17.8753 7.50134 17.803 7.61184 17.7071 7.70772L11.7071 13.7077C11.3166 14.0982 10.6834 14.0982 10.2929 13.7077M17.9241 7.38339C17.9719 7.26817 17.9988 7.14207 18 7.00984L17.9241 7.38339Z" fill="#C8C7CC"/>
</svg>
